# xmcd
#
# Track frame offsets: 
#        150
#        14133
#        28036
#        41433
#        54622
#        70526
#        83083
#        96904
#        111749
#        126609
#
# Disc length: 1867 seconds
#
# Revision: 0
# Processed by: cddbd v1.5.2PL0 Copyright (c) Steve Scherf et al.
# Submitted via: ExactAudioCopy v0.95b4
#
DISCID=8e07490a
DTITLE=Tanya Tucker - Hear And See The Hits
DYEAR=1900
DGENRE=Country
TTITLE0=What's Your Mama's Name
TTITLE1=Blood Red And Goin' Down
TTITLE2=Jamestown Ferry
TTITLE3=The Man That Turned My Mama On
TTITLE4=Here's Some Love (Live)
TTITLE5=Don't Believe My Heart Can Stand Another You (Live)
TTITLE6=If Your Heart Ain't Busy Tonight (Live)
TTITLE7=Just Another Love (Live)
TTITLE8=Can I See You Tonight (Live)
TTITLE9=(Without You) What Do I Do With Me? (Live)
EXTD=
EXTT0=
EXTT1=
EXTT2=
EXTT3=
EXTT4=
EXTT5=
EXTT6=
EXTT7=
EXTT8=
EXTT9=
PLAYORDER=
